<?xml version="1.0" standalone="no"?>
<!DOCTYPE svg PUBLIC "-//W3C//DTD SVG 20010904//EN"
 "http://www.w3.org/TR/2001/REC-SVG-20010904/DTD/svg10.dtd">
<svg version="1.0" xmlns="http://www.w3.org/2000/svg"
 width="500.000000pt" height="500.000000pt" viewBox="0 0 500.000000 500.000000"
 preserveAspectRatio="xMidYMid meet">
<metadata>
Created by potrace 1.16, written by Peter Selinger 2001-2019
</metadata>
<g transform="translate(0.000000,500.000000) scale(0.100000,-0.100000)"
fill="transparent" stroke="#000000" stroke-width="30px">
<path d="M2395 3673 l-71 -4 -116 -352 c-142 -427 -360 -1092 -421 -1279 l-45
-138 242 0 241 0 54 160 53 160 236 -2 237 -3 42 -125 c24 -69 48 -140 54
-157 l11 -33 239 0 c131 0 239 3 239 6 0 4 -130 402 -290 884 l-290 877 -106
6 c-104 7 -164 7 -309 0z m231 -915 c31 -95 59 -179 62 -185 3 -10 -25 -13
-121 -13 l-125 0 61 185 c34 102 62 185 64 185 1 0 27 -78 59 -172z"/>
</g>
</svg>
